<?xml version="1.0" encoding="UTF-8"?>
<svg version="1.1" xmlns="http://www.w3.org/2000/svg" width="500" height="159">
<path d="M0 0 C165 0 330 0 500 0 C500 52.47 500 104.94 500 159 C335 159 170 159 0 159 C0 106.53 0 54.06 0 0 Z " fill="#FEFEFE" transform="translate(0,0)"/>
<path d="M0 0 C4.48053087 0.42548926 7.66102858 1.6936488 11.5625 3.875 C21.39726594 8.93184019 31.13236276 10.29795136 42.1015625 10.59375 C45 11 45 11 46.65625 12.15063477 C48.57344 14.7892093 48.38829502 16.75605435 48.3984375 19.99609375 C48.40230469 21.19556641 48.40617187 22.39503906 48.41015625 23.63085938 C48.39855469 24.88705078 48.38695313 26.14324219 48.375 27.4375 C48.38660156 28.65888672 48.39820312 29.88027344 48.41015625 31.13867188 C48.34684986 50.96412377 41.07791888 68.03470867 27.59375 82.51171875 C22.76288336 87.14614955 17.50028981 91.18593043 12 95 C11.15356934 95.59989746 11.15356934 95.59989746 10.29003906 96.21191406 C7.1806097 98.23573116 5.18648959 99 1.45703125 99 C-13.69297621 94.61762496 -27.2773698 79.13463534 -34.72265625 65.94921875 C-41.35857178 53.11760812 -43.19166902 42.19837724 -43.25 27.8125 C-43.270625 26.52923828 -43.29125 25.24597656 -43.3125 23.92382812 C-43.31765625 22.69728516 -43.3228125 21.47074219 -43.328125 20.20703125 C-43.34214355 18.52830933 -43.34214355 18.52830933 -43.35644531 16.81567383 C-43 14 -43 14 -41.65625 12.13525391 C-39.10374977 10.38567754 -36.81068653 10.62189688 -33.75 10.5625 C-23.23203607 10.00835107 -7.91129059 7.91129059 0 0 Z " fill="#8BCAEF" transform="translate(60,56)"/>
<path d="M0 0 C4.48053087 0.42548926 7.66102858 1.6936488 11.5625 3.875 C21.39726594 8.93184019 31.13236276 10.29795136 42.1015625 10.59375 C45 11 45 11 46.65625 12.15063477 C48.57344 14.7892093 48.38829502 16.75605435 48.3984375 19.99609375 C48.40230469 21.19556641 48.40617187 22.39503906 48.41015625 23.63085938 C48.39855469 24.88705078 48.38695313 26.14324219 48.375 27.4375 C48.38660156 28.65888672 48.39820312 29.88027344 48.41015625 31.13867188 C48.34684986 50.96412377 41.07791888 68.03470867 27.59375 82.51171875 C22.76288336 87.14614955 17.50028981 91.18593043 12 95 C11.15356934 95.59989746 11.15356934 95.59989746 10.29003906 96.21191406 C7.1806097 98.23573116 5.18648959 99 1.45703125 99 C-13.69297621 94.61762496 -27.2773698 79.13463534 -34.72265625 65.94921875 C-41.35857178 53.11760812 -43.19166902 42.19837724 -43.25 27.8125 C-43.270625 26.52923828 -43.29125 25.24597656 -43.3125 23.92382812 C-43.31765625 22.69728516 -43.3228125 21.47074219 -43.328125 20.20703125 C-43.34214355 18.52830933 -43.34214355 18.52830933 -43.35644531 16.81567383 C-43 14 -43 14 -41.65625 12.13525391 C-39.10374977 10.38567754 -36.81068653 10.62189688 -33.75 10.5625 C-23.23203607 10.00835107 -7.91129059 7.91129059 0 0 Z M-4.5625 14.875 C-12.60302617 18.98718246 -20.14902317 20.07223422 -29.06640625 20.75390625 C-31.00410175 20.80004402 -31.00410175 20.80004402 -32 22 C-33.48010679 39.00104476 -31.76112026 54.9350296 -20.890625 68.6640625 C-14.61063159 75.83191705 -7.78812381 83.02047224 1 87 C9.89883927 86.29861365 18.02485072 77.62201897 23.9296875 71.484375 C34.016188 59.3805744 37.1956566 46.52813881 37.125 31.125 C37.12886719 30.25875 37.13273437 29.3925 37.13671875 28.5 C37.13542969 27.67757812 37.13414063 26.85515625 37.1328125 26.0078125 C37.13112061 24.88850342 37.13112061 24.88850342 37.12939453 23.74658203 C37.18898662 21.97134268 37.18898662 21.97134268 36 21 C33.69230828 20.67245666 31.37835086 20.38874325 29.0625 20.125 C19.63516074 18.95105476 12.14825644 16.82243749 4 12 C0.32417113 12 -1.34745027 13.12286077 -4.5625 14.875 Z " fill="#F9FAFA" transform="translate(60,56)"/>
<path d="M0 0 C2.0625 0.4375 2.0625 0.4375 4 1 C7.03526549 15.81097141 9.86718932 30.63626508 12.40820312 45.53955078 C13.51965258 52.03859558 14.64435395 58.53528468 15.77908325 65.03030396 C16.05073244 66.58982564 16.32082056 68.14962007 16.58932495 69.70968628 C16.9660512 71.89825713 17.3477008 74.08591642 17.73046875 76.2734375 C17.95114014 77.54622559 18.17181152 78.81901367 18.39916992 80.13037109 C18.7027806 82.88517749 18.7027806 82.88517749 20 84 C20.2673999 83.49025635 20.5347998 82.9805127 20.81030273 82.45532227 C22.0174623 80.15670784 23.22744223 77.85958995 24.4375 75.5625 C24.85837891 74.76005859 25.27925781 73.95761719 25.71289062 73.13085938 C26.11572266 72.36708984 26.51855469 71.60332031 26.93359375 70.81640625 C27.4913147 69.75595093 27.4913147 69.75595093 28.06030273 68.67407227 C29 67 29 67 30 66 C31.92667507 65.91251793 33.85651861 65.89302666 35.78515625 65.90234375 C37.53989258 65.90717773 37.53989258 65.90717773 39.33007812 65.91210938 C40.56177734 65.92048828 41.79347656 65.92886719 43.0625 65.9375 C44.91584961 65.94426758 44.91584961 65.94426758 46.80664062 65.95117188 C49.87114117 65.96300392 52.93554721 65.97948827 56 66 C56.38218767 67.65614657 56.71395102 69.32457024 57 71 C55.28556781 72.71443219 52.99554759 72.23052967 50.65234375 72.31640625 C49.68031006 72.35451416 48.70827637 72.39262207 47.70678711 72.43188477 C45.84098999 72.49653931 45.84098999 72.49653931 43.9375 72.5625 C38.0284375 72.7790625 38.0284375 72.7790625 32 73 C28.37 80.59 24.74 88.18 21 96 C24.3 97.65 27.6 99.3 31 101 C34.22682176 103.71053028 35.74019537 105.43180992 36.43359375 109.6171875 C36.63383509 114.0953121 36.30284975 117.30596932 34.5 121.4375 C29.95516595 126.09595491 25.47228268 128.2016081 18.9375 128.5 C12.68867935 128.22163472 8.9103372 126.06115329 4.625 121.4375 C1.85407042 117.28110563 1.58309069 113.91952986 2 109 C5.08071968 103.18086283 9.15732647 99.8223084 15 97 C13.91592182 90.76011809 12.83148762 84.52029813 11.74682617 78.28051758 C11.37923457 76.16562238 11.01171925 74.05071392 10.64428711 71.93579102 C6.59551141 48.41561034 6.59551141 48.41561034 2.3125 24.9375 C2.11817383 23.90786133 2.11817383 23.90786133 1.91992188 22.85742188 C1.61417799 21.23811168 1.30724453 19.61902614 1 18 C-4.19586472 35.8591531 -8.53446896 53.94810173 -13 72 C-14.98 72.495 -14.98 72.495 -17 73 C-19.39764459 69.27839327 -20.98456289 65.63140647 -22.4453125 61.45703125 C-22.88230469 60.21888672 -23.31929688 58.98074219 -23.76953125 57.70507812 C-24.22159791 56.40763699 -24.67341814 55.11010996 -25.125 53.8125 C-26.02141294 51.25579365 -26.92083675 48.7001634 -27.8203125 46.14453125 C-28.21492676 45.01378174 -28.60954102 43.88303223 -29.01611328 42.71801758 C-29.91139578 40.08048178 -29.91139578 40.08048178 -31 38 C-33.54428226 44.59544598 -35.68833649 51.26201989 -37.75 58.02148438 C-37.9975 58.82005859 -38.245 59.61863281 -38.5 60.44140625 C-38.7165625 61.14982666 -38.933125 61.85824707 -39.15625 62.58813477 C-40.27527602 65.78687841 -41.6650738 68.88517221 -43 72 C-50.59 72 -58.18 72 -66 72 C-66.495 69.525 -66.495 69.525 -67 67 C-66 66 -66 66 -64.05053711 65.88647461 C-63.2178833 65.89171143 -62.38522949 65.89694824 -61.52734375 65.90234375 C-60.62822266 65.90556641 -59.72910156 65.90878906 -58.80273438 65.91210938 C-57.38444336 65.92467773 -57.38444336 65.92467773 -55.9375 65.9375 C-54.98810547 65.94201172 -54.03871094 65.94652344 -53.06054688 65.95117188 C-50.70696935 65.9629989 -48.35351523 65.97947975 -46 66 C-45.84144531 65.29407715 -45.68289063 64.5881543 -45.51953125 63.86083984 C-43.69846268 55.88755388 -41.14945236 48.21118689 -38.51342773 40.47583008 C-36.87963797 35.67816508 -35.34041324 30.88817365 -34 26 C-32.68 25.67 -31.36 25.34 -30 25 C-27.58826467 28.7417139 -25.99460177 32.41795082 -24.51953125 36.61328125 C-24.19295784 37.53490303 -24.19295784 37.53490303 -23.85978699 38.47514343 C-23.17223668 40.41916744 -22.49226316 42.3657412 -21.8125 44.3125 C-21.34490109 45.63884827 -20.87680699 46.96502207 -20.40820312 48.29101562 C-19.26725522 51.52566175 -18.13138076 54.76199778 -17 58 C-15.56583001 55.31530603 -14.59081864 52.825425 -13.88671875 49.8671875 C-13.69327881 49.07014404 -13.49983887 48.27310059 -13.30053711 47.4519043 C-12.99708374 46.17633667 -12.99708374 46.17633667 -12.6875 44.875 C-10.858724 37.36944117 -8.91176154 29.91295736 -6.81420898 22.47827148 C-5.79180797 18.85177167 -4.78692768 15.22306411 -3.83203125 11.578125 C-3.64906494 10.87985596 -3.46609863 10.18158691 -3.27758789 9.4621582 C-2.78127393 7.55751605 -2.28894018 5.651838 -1.796875 3.74609375 C-1 1 -1 1 0 0 Z " fill="#91CDF0" transform="translate(310,7)"/>
<path d="M0 0 C3.63 0 7.26 0 11 0 C14.60189738 7.89646734 17.81059604 15.93080797 21 24 C24.60189738 16.10353266 27.81059604 8.06919203 31 0 C34.96 0 38.92 0 43 0 C46.58165209 32.51428851 46.58165209 32.51428851 46 46 C42.7 46 39.4 46 36 46 C35.01 38.08 34.02 30.16 33 22 C30.36 29.92 27.72 37.84 25 46 C22.69 46 20.38 46 18 46 C15.03 37.42 12.06 28.84 9 20 C8.34 28.58 7.68 37.16 7 46 C3.37 46 -0.26 46 -4 46 C-3.49082592 35.50833417 -2.81623101 25.03494066 -2 14.5625 C-1.9170166 13.46687744 -1.8340332 12.37125488 -1.74853516 11.24243164 C-1.66651855 10.21496826 -1.58450195 9.18750488 -1.5 8.12890625 C-1.4278125 7.21181885 -1.355625 6.29473145 -1.28125 5.34985352 C-1 3 -1 3 0 0 Z " fill="#0789C5" transform="translate(120,88)"/>
<path d="M0 0 C3.3 0 6.6 0 10 0 C10 15.84 10 31.68 10 48 C6.7 48 3.4 48 0 48 C-0.33 47.34 -0.66 46.68 -1 46 C-1.680625 46.495 -2.36125 46.99 -3.0625 47.5 C-6.70247525 49.35871077 -8.95462873 49.43343264 -13 49 C-16.66887827 47.29354499 -19.34074668 45.03914665 -22 42 C-23.54278505 37.37164486 -23.50478774 32.8335155 -23 28 C-20.98166647 23.96333293 -18.82364966 21.36186501 -15 19 C-12.30859375 18.63671875 -12.30859375 18.63671875 -9.4375 18.6875 C-8.01244141 18.69330078 -8.01244141 18.69330078 -6.55859375 18.69921875 C-4 19 -4 19 -1 21 C-0.67 14.07 -0.34 7.14 0 0 Z " fill="#0588C5" transform="translate(222,86)"/>
<path d="M0 0 C3.3 0 6.6 0 10 0 C10 3.3 10 6.6 10 10 C11.98 10 13.96 10 16 10 C16 12.64 16 15.28 16 18 C14.02 18 12.04 18 10 18 C10.495 23.94 10.495 23.94 11 30 C12.32 30.33 13.64 30.66 15 31 C15.625 34.375 15.625 34.375 16 38 C14 40 14 40 10.1875 40.375 C6.93296846 40.29807471 5.96655001 39.97936065 3.0625 38.1875 C-0.59170688 34.31182604 -0.12345001 30.33384283 -0.0625 25.3125 C-0.05798828 24.61060547 -0.05347656 23.90871094 -0.04882812 23.18554688 C-0.03706927 21.45699462 -0.01913454 19.72848635 0 18 C-1.32 18 -2.64 18 -4 18 C-4.33 17.01 -4.66 16.02 -5 15 C-5.66 16.32 -6.32 17.64 -7 19 C-8.8871875 18.9071875 -8.8871875 18.9071875 -10.8125 18.8125 C-13.39469981 18.83081347 -14.74451965 18.86838891 -17.0625 20.0625 C-18.58299975 23.20486615 -17.78072633 25.69692708 -17 29 C-16.34 29.66 -15.68 30.32 -15 31 C-13.700625 30.938125 -12.40125 30.87625 -11.0625 30.8125 C-8.91015625 30.74609375 -8.91015625 30.74609375 -7 31 C-4.97170628 33.40859879 -4 34.83044309 -4 38 C-8.63027656 39.85211062 -13.04590596 40.90747891 -18 40 C-21.97031812 38.28118607 -25.04296759 36.01684693 -28 32.875 C-29.61800199 28.22324427 -29.86743625 23.85070348 -29 19 C-26.67376829 14.76159077 -23.53503982 11.73856861 -19 10 C-12.64216786 9.47092793 -6.26898818 9.86018397 0 11 C0 7.37 0 3.74 0 0 Z " fill="#098AC6" transform="translate(478,95)"/>
<path d="M0 0 C1 3 1 3 0.22265625 4.82421875 C-0.8515625 6.54947917 -1.92578125 8.27473958 -3 10 C-3.71285156 9.84273437 -4.42570312 9.68546875 -5.16015625 9.5234375 C-10.26757085 8.58204334 -16.25043148 7.56915657 -21.01171875 10.046875 C-23.79338295 12.3368649 -25.83018594 14.33778158 -26.203125 17.98828125 C-26.30099083 22.8407954 -26.21440304 26.09679631 -23 30 C-19.70493928 33.07242148 -17.45045536 33.36126138 -13 33.25 C-11.96875 33.23453125 -10.9375 33.2190625 -9.875 33.203125 C-7.43476759 33.03071728 -5.33479406 32.69594823 -3 32 C0.22265625 37.17578125 0.22265625 37.17578125 1 39 C0 42 0 42 -1.71484375 42.94921875 C-10.28361463 45.79543614 -16.88058537 46.29675546 -25.25 42.5 C-31.83291587 38.91239546 -35.2403641 34.75922214 -38.375 28.0625 C-39.73211878 21.41261796 -39.74083433 15.9179155 -36.3203125 9.9140625 C-27.99138592 -2.16041687 -13.53011695 -7.48933581 0 0 Z " fill="#098AC6" transform="translate(311,90)"/>
<path d="M0 0 C4.21457852 3.08383794 7.11502625 5.26019688 8.01171875 10.5 C8.18794487 14.9724974 7.86327526 18.18572337 6.0625 22.3125 C1.51766595 26.97095491 -2.96521732 29.0766081 -9.5 29.375 C-15.74882065 29.09663472 -19.5271628 26.93615329 -23.8125 22.3125 C-26.58342958 18.15610563 -26.85440931 14.79452986 -26.4375 9.875 C-20.75446304 -0.85962537 -11.33012502 -3.70804092 0 0 Z " fill="#0789C5" transform="translate(338.4375,106.125)"/>
<path d="M0 0 C1.093125 0.00257812 2.18625 0.00515625 3.3125 0.0078125 C4.405625 0.00523438 5.49875 0.00265625 6.625 0 C9.3125 0.1328125 9.3125 0.1328125 10.3125 1.1328125 C10.38455511 2.81890216 10.39636068 4.50781909 10.375 6.1953125 C10.36597656 7.11441406 10.35695313 8.03351563 10.34765625 8.98046875 C10.33605469 9.69074219 10.32445313 10.40101562 10.3125 11.1328125 C11.02277344 11.12121094 11.73304687 11.10960938 12.46484375 11.09765625 C13.38394531 11.08863281 14.30304688 11.07960938 15.25 11.0703125 C16.16652344 11.05871094 17.08304688 11.04710938 18.02734375 11.03515625 C20.3125 11.1328125 20.3125 11.1328125 21.3125 12.1328125 C21.38508946 14.31920703 21.39623783 16.50781639 21.375 18.6953125 C21.36597656 19.89285156 21.35695312 21.09039062 21.34765625 22.32421875 C21.33605469 23.25105469 21.32445312 24.17789063 21.3125 25.1328125 C17.6825 25.1328125 14.0525 25.1328125 10.3125 25.1328125 C10.3125 28.7628125 10.3125 32.3928125 10.3125 36.1328125 C8.16673363 36.15967188 6.02087355 36.17914338 3.875 36.1953125 C2.68003906 36.20691406 1.48507813 36.21851563 0.25390625 36.23046875 C-2.6875 36.1328125 -2.6875 36.1328125 -3.6875 35.1328125 C-3.83007189 31.79663019 -3.72978157 28.47305644 -3.6875 25.1328125 C-6.9875 25.1328125 -10.2875 25.1328125 -13.6875 25.1328125 C-13.6875 20.5128125 -13.6875 15.8928125 -13.6875 11.1328125 C-10.3875 11.1328125 -7.0875 11.1328125 -3.6875 11.1328125 C-3.708125 9.5034375 -3.72875 7.8740625 -3.75 6.1953125 C-3.77136068 4.50781909 -3.75955511 2.81890216 -3.6875 1.1328125 C-2.6875 0.1328125 -2.6875 0.1328125 0 0 Z " fill="#FAFDFE" transform="translate(58.6875,84.8671875)"/>
<path d="M0 0 C3.77260108 1.47153082 5.74673253 3.6200988 8 7 C8.33 9.97 8.66 12.94 9 16 C2.07 16 -4.86 16 -12 16 C-11.34 17.32 -10.68 18.64 -10 20 C-6.06440448 21.05958341 -3.73274122 21.26378684 0.125 19.875 C3 19 3 19 5.875 20.375 C6.57625 20.91125 7.2775 21.4475 8 22 C6.80528633 25.71688697 4.53411042 27.44291059 1.12890625 29.234375 C-2.90550124 30.68528118 -6.79801893 30.6875969 -11 30 C-16.31565158 27.34217421 -20.10236008 23.69291975 -22 18 C-22.58009692 12.19903078 -22.07379516 9.20973893 -18.58203125 4.54296875 C-13.08192001 -0.82133727 -7.31692099 -0.91090221 0 0 Z " fill="#0689C5" transform="translate(439,105)"/>
<path d="M0 0 C3.77260108 1.47153082 5.74673253 3.6200988 8 7 C8.33 9.97 8.66 12.94 9 16 C2.07 16 -4.86 16 -12 16 C-11.34 17.32 -10.68 18.64 -10 20 C-6.06440448 21.05958341 -3.73274122 21.26378684 0.125 19.875 C3 19 3 19 5.875 20.375 C6.57625 20.91125 7.2775 21.4475 8 22 C6.80528633 25.71688697 4.53411042 27.44291059 1.12890625 29.234375 C-2.90550124 30.68528118 -6.79801893 30.6875969 -11 30 C-16.31565158 27.34217421 -20.10236008 23.69291975 -22 18 C-22.58009692 12.19903078 -22.07379516 9.20973893 -18.58203125 4.54296875 C-13.08192001 -0.82133727 -7.31692099 -0.91090221 0 0 Z " fill="#0689C5" transform="translate(189,105)"/>
<path d="M0 0 C3.3 0 6.6 0 10 0 C10 0.99 10 1.98 10 3 C10.474375 2.505 10.94875 2.01 11.4375 1.5 C15.22680565 -0.71813014 18.70730081 -0.57594354 23 0 C25.875 1.3125 25.875 1.3125 28 3 C28.53278564 3.41999268 29.06557129 3.83998535 29.61450195 4.27270508 C31.5394723 6.67255798 31.34348016 8.27669677 31.29296875 11.32421875 C31.28330078 12.35224609 31.27363281 13.38027344 31.26367188 14.43945312 C31.23853516 15.51130859 31.21339844 16.58316406 31.1875 17.6875 C31.16719727 19.31268555 31.16719727 19.31268555 31.14648438 20.97070312 C31.11111023 23.64734704 31.05730304 26.32373575 31 29 C27.7 29 24.4 29 21 29 C20.95101563 27.65164062 20.90203125 26.30328125 20.8515625 24.9140625 C20.77653943 23.15102041 20.70099141 21.38800061 20.625 19.625 C20.5940625 18.73554687 20.563125 17.84609375 20.53125 16.9296875 C20.49257813 16.07890625 20.45390625 15.228125 20.4140625 14.3515625 C20.36693115 13.17327881 20.36693115 13.17327881 20.31884766 11.97119141 C20.1600535 9.76997061 20.1600535 9.76997061 18 8 C14.70285207 8.32971479 13.3773161 8.6226839 11 11 C10.63168919 12.93257855 10.63168919 12.93257855 10.5859375 15.1328125 C10.52792969 16.34130859 10.52792969 16.34130859 10.46875 17.57421875 C10.42234375 18.83685547 10.42234375 18.83685547 10.375 20.125 C10.31699219 21.39923828 10.31699219 21.39923828 10.2578125 22.69921875 C10.16343506 24.79911684 10.08062414 26.89952891 10 29 C6.7 29 3.4 29 0 29 C0 19.43 0 9.86 0 0 Z " fill="#0789C5" transform="translate(349,105)"/>
<path d="M0 0 C3.3 0 6.6 0 10 0 C10.33 0.66 10.66 1.32 11 2 C11.99 1.34 12.98 0.68 14 0 C18.23338782 -0.61043233 21.94484493 -0.45876307 25.875 1.25 C28.82745338 3.6814322 30.8051996 5.5851486 31.34057617 9.47363281 C31.32486572 10.37436523 31.30915527 11.27509766 31.29296875 12.203125 C31.28330078 13.1828125 31.27363281 14.1625 31.26367188 15.171875 C31.23853516 16.18765625 31.21339844 17.2034375 31.1875 18.25 C31.16719727 19.796875 31.16719727 19.796875 31.14648438 21.375 C31.11118034 23.91689049 31.05737473 26.4585119 31 29 C27.7 29 24.4 29 21 29 C20.95101563 27.65164062 20.90203125 26.30328125 20.8515625 24.9140625 C20.77653943 23.15102041 20.70099141 21.38800061 20.625 19.625 C20.5940625 18.73554687 20.563125 17.84609375 20.53125 16.9296875 C20.49257813 16.07890625 20.45390625 15.228125 20.4140625 14.3515625 C20.36693115 13.17327881 20.36693115 13.17327881 20.31884766 11.97119141 C20.1600535 9.76997061 20.1600535 9.76997061 18 8 C14.93008319 8.16442277 14.93008319 8.16442277 12 9 C10.88176185 11.23647631 10.80603939 12.64891529 10.68359375 15.1328125 C10.64169922 15.93847656 10.59980469 16.74414062 10.55664062 17.57421875 C10.49766602 18.83685547 10.49766602 18.83685547 10.4375 20.125 C10.39431641 20.97449219 10.35113281 21.82398437 10.30664062 22.69921875 C10.20045764 24.79928223 10.09971503 26.89961948 10 29 C6.7 29 3.4 29 0 29 C0 19.43 0 9.86 0 0 Z " fill="#0789C5" transform="translate(384,105)"/>
<path d="M0 0 C4.48053087 0.42548926 7.66102858 1.6936488 11.5625 3.875 C21.39726594 8.93184019 31.13236276 10.29795136 42.1015625 10.59375 C45 11 45 11 46.65625 12.15063477 C48.57344 14.7892093 48.38829502 16.75605435 48.3984375 19.99609375 C48.40230469 21.19556641 48.40617187 22.39503906 48.41015625 23.63085938 C48.39855469 24.88705078 48.38695313 26.14324219 48.375 27.4375 C48.38660156 28.65888672 48.39820312 29.88027344 48.41015625 31.13867188 C48.34684986 50.96412377 41.07791888 68.03470867 27.59375 82.51171875 C22.76288336 87.14614955 17.50028981 91.18593043 12 95 C11.15356934 95.59989746 11.15356934 95.59989746 10.29003906 96.21191406 C7.1806097 98.23573116 5.18648959 99 1.45703125 99 C-13.69297621 94.61762496 -27.2773698 79.13463534 -34.72265625 65.94921875 C-41.35857178 53.11760812 -43.19166902 42.19837724 -43.25 27.8125 C-43.270625 26.52923828 -43.29125 25.24597656 -43.3125 23.92382812 C-43.31765625 22.69728516 -43.3228125 21.47074219 -43.328125 20.20703125 C-43.34214355 18.52830933 -43.34214355 18.52830933 -43.35644531 16.81567383 C-43 14 -43 14 -41.65625 12.13525391 C-39.10374977 10.38567754 -36.81068653 10.62189688 -33.75 10.5625 C-23.23203607 10.00835107 -7.91129059 7.91129059 0 0 Z M-3 4.25 C-12.88809507 9.93727037 -22.43415464 12.07583445 -33.73632812 12.51757812 C-37.81616096 12.62821233 -37.81616096 12.62821233 -41 15 C-43.71932317 37.08821662 -39.56633208 56.2613214 -26.71484375 74.1875 C-20.7082017 81.84474775 -13.9222545 87.4504004 -6 93 C-4.98421875 93.7528125 -3.9684375 94.505625 -2.921875 95.28125 C0.25444735 97.14967491 1.42029521 97.74668689 5 97 C7.40983234 95.57971234 9.53327568 94.17456272 11.75 92.5 C12.67752075 91.81333252 12.67752075 91.81333252 13.6237793 91.11279297 C29.84363042 78.96852577 42.10425151 64.07376049 45.67919922 43.63183594 C46.80310024 34.41139982 47.13642927 24.23086165 46 15 C43.65997543 12.65997543 43.10149652 12.72165765 39.921875 12.54296875 C39.09703613 12.48512207 38.27219727 12.42727539 37.42236328 12.36767578 C36.5404834 12.30821777 35.65860352 12.24875977 34.75 12.1875 C24.66963359 11.34701759 15.35346007 9.625693 6.8046875 3.8359375 C2.6850249 1.13922243 0.93213884 1.8502388 -3 4.25 Z " fill="#1C1C1C" transform="translate(60,56)"/>
<path d="M0 0 C3.3 0 6.6 0 10 0 C10 9.57 10 19.14 10 29 C6.7 29 3.4 29 0 29 C0 19.43 0 9.86 0 0 Z " fill="#0B8BC6" transform="translate(237,105)"/>
<path d="M0 0 C5.94 0 11.88 0 18 0 C18 2.64 18 5.28 18 8 C12.06 8 6.12 8 0 8 C0 5.36 0 2.72 0 0 Z " fill="#0789C5" transform="translate(252,114)"/>
<path d="M0 0 C4.42313144 0.42456992 7.535255 1.6395784 11.375 3.8125 C18.60980338 7.59391486 26.07814574 9.29097053 34 11 C34 11.66 34 12.32 34 13 C24.48673718 12.75888044 14.66956888 10.28365004 6.828125 4.76953125 C4.25801528 2.78611203 4.25801528 2.78611203 1.8984375 3.10546875 C-0.23534271 4.11089193 -2.30878689 5.17361462 -4.375 6.3125 C-11.82881648 10.12247455 -20.52419712 13.42935587 -29 13 C-28.01 12.67 -27.02 12.34 -26 12 C-26 11.34 -26 10.68 -26 10 C-25.03320312 9.76925781 -24.06640625 9.53851563 -23.0703125 9.30078125 C-10.60039576 6.57359069 -10.60039576 6.57359069 0 0 Z " fill="#1C1C1C" transform="translate(60,56)"/>
<path d="M0 0 C2 3 2 3 1.75 6.5625 C1 10 1 10 -1 12 C-7.00458716 12.54587156 -7.00458716 12.54587156 -9.9375 10.9375 C-11.63335287 7.84506242 -11.43060657 5.44485259 -11 2 C-7.88980721 -1.98104677 -4.56233816 -1.18282841 0 0 Z " fill="#F6FAFC" transform="translate(334,114)"/>
<path d="M0 0 C3.4375 0.75 3.4375 0.75 5.4375 2.75 C5.98337156 8.75458716 5.98337156 8.75458716 4.375 11.6875 C1.28256242 13.38335287 -1.11764741 13.18060657 -4.5625 12.75 C-6.5625 11.1875 -6.5625 11.1875 -7.5625 8.75 C-7.4375 5.125 -7.4375 5.125 -6.5625 1.75 C-3.5625 -0.25 -3.5625 -0.25 0 0 Z " fill="#F6FAFC" transform="translate(216.5625,113.25)"/>
<path d="M0 0 C1.90845703 0.04060547 1.90845703 0.04060547 3.85546875 0.08203125 C5.31919922 0.13423828 5.31919922 0.13423828 6.8125 0.1875 C3.64241003 2.30089331 2.37098959 2.49763264 -1.3125 2.75 C-4.55670975 2.73234879 -4.55670975 2.73234879 -7.1875 4.1875 C-8.13105729 17.52739857 -8.1166471 31.32422079 -4.1875 44.1875 C-5.1775 43.8575 -6.1675 43.5275 -7.1875 43.1875 C-10.7387451 34.80030011 -10.64746507 25.56993343 -10.5625 16.625 C-10.57410156 15.36880859 -10.58570312 14.11261719 -10.59765625 12.81835938 C-10.59378906 11.61888672 -10.58992188 10.41941406 -10.5859375 9.18359375 C-10.58255371 8.10263428 -10.57916992 7.0216748 -10.57568359 5.90795898 C-10.1875 3.1875 -10.1875 3.1875 -8.87231445 1.33105469 C-6.07258072 -0.56924277 -3.30618608 -0.09099595 0 0 Z " fill="#1C1C1C" transform="translate(27.1875,66.8125)"/>
<path d="M0 0 C1.9375 1.6875 1.9375 1.6875 3 4 C2.75925978 7.37036311 2.41201979 8.58798021 0 11 C-3.13704316 11.333728 -5.16554166 11.52849028 -7.875 9.8125 C-9.40659584 7.34492892 -9.42822025 5.85480169 -9 3 C-6.74280427 -0.63659311 -4.02330328 -0.58673173 0 0 Z " fill="#0B8BC6" transform="translate(245,88)"/>
<path d="M0 0 C2 2 2 2 2.125 5.625 C2.08375 6.73875 2.0425 7.8525 2 9 C-0.97 8.67 -3.94 8.34 -7 8 C-7.33 9.32 -7.66 10.64 -8 12 C-13.23725835 13.04745167 -13.23725835 13.04745167 -16 13 C-18.5 11.1875 -18.5 11.1875 -20 9 C-20 8.34 -20 7.68 -20 7 C-13.07 7 -6.14 7 1 7 C0.67 4.69 0.34 2.38 0 0 Z " fill="#E0F0F7" transform="translate(197,114)"/>
<path d="M0 0 C2.1519437 3.22791555 2.20086443 4.28400809 2 8 C-0.97 8 -3.94 8 -7 8 C-7.33 9.32 -7.66 10.64 -8 12 C-13.23725835 13.04745167 -13.23725835 13.04745167 -16 13 C-18.5 11.1875 -18.5 11.1875 -20 9 C-20 8.34 -20 7.68 -20 7 C-13.07 7 -6.14 7 1 7 C0.67 4.69 0.34 2.38 0 0 Z " fill="#E0F0F7" transform="translate(447,114)"/>
<path d="M0 0 C1.77007714 -0.08114106 3.54122098 -0.13925505 5.3125 -0.1875 C6.29863281 -0.22230469 7.28476563 -0.25710937 8.30078125 -0.29296875 C11 0 11 0 12.65039062 1.171875 C14.51844304 3.70226148 14.34253445 5.42032946 14.29296875 8.54296875 C14.28330078 9.61611328 14.27363281 10.68925781 14.26367188 11.79492188 C14.23853516 12.91447266 14.21339844 14.03402344 14.1875 15.1875 C14.17396484 16.31865234 14.16042969 17.44980469 14.14648438 18.61523438 C14.11109958 21.41063317 14.06172948 24.20507892 14 27 C13.34 27 12.68 27 12 27 C11.97494385 26.30849854 11.9498877 25.61699707 11.92407227 24.90454102 C11.80847839 21.79032134 11.68558758 18.67643211 11.5625 15.5625 C11.52318359 14.47388672 11.48386719 13.38527344 11.44335938 12.26367188 C11.40146484 11.22919922 11.35957031 10.19472656 11.31640625 9.12890625 C11.27974854 8.17056885 11.24309082 7.21223145 11.20532227 6.22485352 C11.24165576 4.02861075 11.24165576 4.02861075 10 3 C8.31816052 2.76712992 6.6287584 2.58735834 4.9375 2.4375 C3.55884766 2.31181641 3.55884766 2.31181641 2.15234375 2.18359375 C1.08693359 2.09271484 1.08693359 2.09271484 0 2 C0 1.34 0 0.68 0 0 Z " fill="#101010" transform="translate(94,67)"/>
<path d="M0 0 C1.90845703 0.04060547 1.90845703 0.04060547 3.85546875 0.08203125 C5.31919922 0.13423828 5.31919922 0.13423828 6.8125 0.1875 C3.64241003 2.30089331 2.37098959 2.49763264 -1.3125 2.75 C-4.55670975 2.73234879 -4.55670975 2.73234879 -7.1875 4.1875 C-7.58693176 6.70945967 -7.93829848 9.21713656 -8.25 11.75 C-8.34087891 12.46091797 -8.43175781 13.17183594 -8.52539062 13.90429688 C-8.74989503 15.66488403 -8.96918397 17.42613478 -9.1875 19.1875 C-9.5175 19.1875 -9.8475 19.1875 -10.1875 19.1875 C-10.2684313 16.58271117 -10.32795434 13.98043347 -10.375 11.375 C-10.41270508 10.26801758 -10.41270508 10.26801758 -10.45117188 9.13867188 C-10.49097648 6.20639904 -10.52023624 3.81382704 -9.125 1.1875 C-6.09221427 -0.37780876 -3.37605655 -0.09291899 0 0 Z " fill="#0E0E0E" transform="translate(27.1875,66.8125)"/>
<path d="M0 0 C2.33944736 0.28730055 4.6739143 0.61936779 7 1 C7.33 2.32 7.66 3.64 8 5 C4.7 5 1.4 5 -2 5 C-1 1 -1 1 0 0 Z " fill="#DDEFF7" transform="translate(430,111)"/>
<path d="M0 0 C2.33944736 0.28730055 4.6739143 0.61936779 7 1 C7.33 2.32 7.66 3.64 8 5 C4.7 5 1.4 5 -2 5 C-1 1 -1 1 0 0 Z " fill="#DDEFF7" transform="translate(180,111)"/>
<path d="M0 0 C0.66 0 1.32 0 2 0 C1.14791503 11.34618411 1.14791503 11.34618411 -1 16 C-1.99 16.33 -2.98 16.66 -4 17 C-2.68 11.39 -1.36 5.78 0 0 Z " fill="#343434" transform="translate(106,94)"/>
<path d="M0 0 C0.99 0.33 1.98 0.66 3 1 C1.61875523 2.65809558 0.21938652 4.30110507 -1.1875 5.9375 C-1.96480469 6.85402344 -2.74210937 7.77054688 -3.54296875 8.71484375 C-6.15235962 11.14170172 -7.50739976 11.70843302 -11 12 C-10.29875 11.319375 -9.5975 10.63875 -8.875 9.9375 C-5.72065663 6.79219487 -2.86065696 3.4111614 0 0 Z " fill="#212121" transform="translate(91,130)"/>
<path d="M0 0 C2.96175123 0.61277612 4.38058783 1.25372522 7 3 C10.12521833 3.16699232 10.12521833 3.16699232 13 3 C12.67 3.99 12.34 4.98 12 6 C7.27536912 5.53680089 3.82942948 4.90108294 0 2 C0 1.34 0 0.68 0 0 Z " fill="#161616" transform="translate(53,149)"/>
<path d="M0 0 C0.66 0 1.32 0 2 0 C2.99 3.96 3.98 7.92 5 12 C4.01 11.67 3.02 11.34 2 11 C0.37676246 7.24092359 -0.23994929 4.07913787 0 0 Z " fill="#242424" transform="translate(18,99)"/>
<path d="M0 0 C1.49080078 0.29197266 1.49080078 0.29197266 3.01171875 0.58984375 C4.15060547 0.82380859 4.15060547 0.82380859 5.3125 1.0625 C5.3125 1.7225 5.3125 2.3825 5.3125 3.0625 C3.72840006 2.94762252 2.14521037 2.82015492 0.5625 2.6875 C-0.31921875 2.61789063 -1.2009375 2.54828125 -2.109375 2.4765625 C-4.67816382 2.06399945 -6.44591015 1.35089043 -8.6875 0.0625 C-5.21237282 -1.09587573 -3.55079714 -0.71015943 0 0 Z " fill="#262626" transform="translate(88.6875,65.9375)"/>
<path d="M0 0 C-3.16240582 2.10827055 -4.50657469 2.33817465 -8.1875 2.625 C-9.53908203 2.73714844 -9.53908203 2.73714844 -10.91796875 2.8515625 C-11.94857422 2.92503906 -11.94857422 2.92503906 -13 3 C-12.01 2.67 -11.02 2.34 -10 2 C-10 1.34 -10 0.68 -10 0 C-6.30458414 -0.95024979 -3.69541586 -0.95024979 0 0 Z " fill="#2D2D2D" transform="translate(44,66)"/>
<path d="M0 0 C0.66 0 1.32 0 2 0 C1.25 6.75 1.25 6.75 -1 9 C-0.67 6.03 -0.34 3.06 0 0 Z " fill="#1C1C1C" transform="translate(106,94)"/>
</svg>
