<?xml version="1.0" encoding="UTF-8"?>
<svg version="1.1" xmlns="http://www.w3.org/2000/svg" width="242" height="208">
<path d="M0 0 C1.43641846 0.26792358 1.43641846 0.26792358 2.90185547 0.54125977 C22.71900408 4.43540812 22.71900408 4.43540812 28.1875 12.3125 C30.63281025 17.71792266 30.79222829 23.46663942 31.1875 29.3125 C32.26644531 29.54324219 33.34539062 29.77398437 34.45703125 30.01171875 C39.37573518 31.07502762 44.28292737 32.18596965 49.1875 33.3125 C50.05761719 33.51037109 50.92773438 33.70824219 51.82421875 33.91210938 C54.3882123 34.50424241 56.94429949 35.1231395 59.5 35.75 C60.6897644 36.02106567 60.6897644 36.02106567 61.90356445 36.29760742 C66.94008676 37.56877868 69.88489973 39.07967772 73.1875 43.3125 C74.234375 45.77734375 74.234375 45.77734375 74.9375 48.25 C76.82057242 53.40567005 79.21231297 55.00142417 83.82421875 57.71875 C103.75535022 71.15990973 110.83731309 103.89225279 115.3203125 125.66015625 C115.98333954 129.10284914 116.60849718 132.49437266 116.8125 136 C116.92464844 137.27423828 116.92464844 137.27423828 117.0390625 138.57421875 C114.4660481 146.8479944 102.37544711 152.45278263 95.42578125 157.0559082 C93.44932613 158.36715415 91.48226382 159.69166866 89.515625 161.01757812 C66.42373797 176.4666386 48.3855862 177.83160786 21.43188477 172.53027344 C-10.20607479 165.9132427 -41.77613635 156.43973201 -71.375 143.4375 C-72.60754517 142.90177368 -72.60754517 142.90177368 -73.86499023 142.35522461 C-80.98288011 139.10139789 -80.98288011 139.10139789 -82.8125 135.3125 C-86.89071199 109.35226881 -78.67439666 64.87999966 -65.8125 42.3125 C-65.13445312 41.51457031 -64.45640625 40.71664062 -63.7578125 39.89453125 C-60.99145738 36.22272254 -60.570227 32.59458891 -59.71875 28.15234375 C-58.67177494 24.87152103 -57.51559452 23.41546719 -54.8125 21.3125 C-53.8225 21.3125 -52.8325 21.3125 -51.8125 21.3125 C-51.4825 20.3225 -51.1525 19.3325 -50.8125 18.3125 C-47.70033541 16.75641771 -44.4117342 17.16927168 -41 17.1875 C-40.28779297 17.18363281 -39.57558594 17.17976563 -38.84179688 17.17578125 C-34.95049446 17.1829807 -31.66518636 17.54196273 -27.8125 18.3125 C-27.8125 13.0325 -27.8125 7.7525 -27.8125 2.3125 C-19.04185422 -3.7888188 -10.05356443 -1.88714853 0 0 Z M-21.8125 9.3125 C-21.8125 12.6125 -21.8125 15.9125 -21.8125 19.3125 C-20.54019531 19.55484375 -19.26789063 19.7971875 -17.95703125 20.046875 C-17.11640137 20.20704102 -16.27577148 20.36720703 -15.40966797 20.53222656 C-13.53766584 20.88870461 -11.66559434 21.24481851 -9.79345703 21.60058594 C-4.80984942 22.54817916 0.17243856 23.50187391 5.15234375 24.46875 C6.10149658 24.65211914 7.05064941 24.83548828 8.02856445 25.02441406 C9.85956138 25.37831367 11.69014249 25.73437264 13.52026367 26.09277344 C14.35146729 26.25293945 15.1826709 26.41310547 16.0390625 26.578125 C16.76947754 26.72024414 17.49989258 26.86236328 18.25244141 27.00878906 C20.3549951 27.39002682 20.3549951 27.39002682 23.1875 27.3125 C23.0328125 25.4871875 23.0328125 25.4871875 22.875 23.625 C22.81699219 22.94050781 22.75898438 22.25601563 22.69921875 21.55078125 C22.02768652 18.61346854 21.01839307 16.70952447 19.1875 14.3125 C16.8112104 13.16583383 16.8112104 13.16583383 14 12.6875 C12.93523437 12.46191406 11.87046875 12.23632812 10.7734375 12.00390625 C9.59007813 11.77574219 8.40671875 11.54757813 7.1875 11.3125 C5.86685816 11.03149125 4.54655465 10.74888864 3.2265625 10.46484375 C-9.45960403 7.30926244 -9.45960403 7.30926244 -21.8125 9.3125 Z " fill="#E8E6E1" transform="translate(114.8125,18.6875)"/>
<path d="M0 0 C1.43641846 0.26792358 1.43641846 0.26792358 2.90185547 0.54125977 C22.71900408 4.43540812 22.71900408 4.43540812 28.1875 12.3125 C30.63281025 17.71792266 30.79222829 23.46663942 31.1875 29.3125 C32.26644531 29.54324219 33.34539062 29.77398437 34.45703125 30.01171875 C39.37573518 31.07502762 44.28292737 32.18596965 49.1875 33.3125 C50.05761719 33.51037109 50.92773438 33.70824219 51.82421875 33.91210938 C54.3882123 34.50424241 56.94429949 35.1231395 59.5 35.75 C60.29317627 35.93071045 61.08635254 36.1114209 61.90356445 36.29760742 C66.94008676 37.56877868 69.88489973 39.07967772 73.1875 43.3125 C74.234375 45.77734375 74.234375 45.77734375 74.9375 48.25 C76.82057242 53.40567005 79.21231297 55.00142417 83.82421875 57.71875 C103.75535022 71.15990973 110.83731309 103.89225279 115.3203125 125.66015625 C115.98333954 129.10284914 116.60849718 132.49437266 116.8125 136 C116.92464844 137.27423828 116.92464844 137.27423828 117.0390625 138.57421875 C114.4660481 146.8479944 102.37544711 152.45278263 95.42578125 157.0559082 C93.44932613 158.36715415 91.48226382 159.69166866 89.515625 161.01757812 C69.34903108 174.51139502 69.34903108 174.51139502 59.3125 175.75 C58.28382813 175.89308594 57.25515625 176.03617188 56.1953125 176.18359375 C53.03872793 176.31887595 50.27593776 175.94401638 47.1875 175.3125 C47.1875 174.6525 47.1875 173.9925 47.1875 173.3125 C46.56875 173.065 45.95 172.8175 45.3125 172.5625 C42.74997643 171.05513319 42.28706327 170.03552023 41.1875 167.3125 C40.93353271 165.26441956 40.93353271 165.26441956 40.92871094 163.06079102 C40.92240662 162.22794083 40.91610229 161.39509064 40.90960693 160.53700256 C40.9136554 159.63920578 40.91770386 158.741409 40.921875 157.81640625 C40.91996155 156.87304916 40.9180481 155.92969208 40.91607666 154.95774841 C40.91471477 152.95124039 40.91841148 150.94472355 40.92675781 148.93823242 C40.93725476 145.94493307 40.92696991 142.95226245 40.9140625 139.95898438 C40.90008486 122.65851631 41.9041841 105.47368809 45.4375 88.5 C45.75738892 86.93282227 45.75738892 86.93282227 46.08374023 85.33398438 C48.66204915 73.29382951 53.16680952 62.51250183 58.1875 51.3125 C58.1875 50.6525 58.1875 49.9925 58.1875 49.3125 C49.48472397 47.27072277 40.77711028 45.25092945 32.05859375 43.27734375 C31.31312286 43.10736374 30.56765198 42.93738373 29.79959106 42.76225281 C21.64595069 40.92419818 13.46975622 39.43086022 5.1875 38.3125 C4.09695312 38.16361328 3.00640625 38.01472656 1.8828125 37.86132812 C-4.54327183 36.98844035 -10.97171711 36.13559938 -17.40234375 35.296875 C-21.98354371 34.6958687 -26.55843234 34.06838425 -31.12890625 33.390625 C-32.07725342 33.25011719 -33.02560059 33.10960937 -34.00268555 32.96484375 C-35.72494762 32.70674719 -37.44654129 32.44412633 -39.16723633 32.17578125 C-48.32731623 30.51611724 -48.32731623 30.51611724 -56.6875 33.3125 C-57.38875 33.9725 -58.09 34.6325 -58.8125 35.3125 C-59.4725 35.3125 -60.1325 35.3125 -60.8125 35.3125 C-59.4965331 26.23925452 -59.4965331 26.23925452 -56.875 22.6875 C-54.8125 21.3125 -54.8125 21.3125 -51.8125 21.3125 C-51.4825 20.3225 -51.1525 19.3325 -50.8125 18.3125 C-47.70033541 16.75641771 -44.4117342 17.16927168 -41 17.1875 C-40.28779297 17.18363281 -39.57558594 17.17976563 -38.84179688 17.17578125 C-34.95049446 17.1829807 -31.66518636 17.54196273 -27.8125 18.3125 C-27.8125 13.0325 -27.8125 7.7525 -27.8125 2.3125 C-19.04185422 -3.7888188 -10.05356443 -1.88714853 0 0 Z M-21.8125 9.3125 C-21.8125 12.6125 -21.8125 15.9125 -21.8125 19.3125 C-20.54019531 19.55484375 -19.26789063 19.7971875 -17.95703125 20.046875 C-17.11640137 20.20704102 -16.27577148 20.36720703 -15.40966797 20.53222656 C-13.53766584 20.88870461 -11.66559434 21.24481851 -9.79345703 21.60058594 C-4.80984942 22.54817916 0.17243856 23.50187391 5.15234375 24.46875 C6.10149658 24.65211914 7.05064941 24.83548828 8.02856445 25.02441406 C9.85956138 25.37831367 11.69014249 25.73437264 13.52026367 26.09277344 C14.35146729 26.25293945 15.1826709 26.41310547 16.0390625 26.578125 C16.76947754 26.72024414 17.49989258 26.86236328 18.25244141 27.00878906 C20.3549951 27.39002682 20.3549951 27.39002682 23.1875 27.3125 C23.0328125 25.4871875 23.0328125 25.4871875 22.875 23.625 C22.81699219 22.94050781 22.75898438 22.25601563 22.69921875 21.55078125 C22.02768652 18.61346854 21.01839307 16.70952447 19.1875 14.3125 C16.8112104 13.16583383 16.8112104 13.16583383 14 12.6875 C12.93523437 12.46191406 11.87046875 12.23632812 10.7734375 12.00390625 C9.59007813 11.77574219 8.40671875 11.54757813 7.1875 11.3125 C5.86685816 11.03149125 4.54655465 10.74888864 3.2265625 10.46484375 C-9.45960403 7.30926244 -9.45960403 7.30926244 -21.8125 9.3125 Z " fill="#CAC1BA" transform="translate(114.8125,18.6875)"/>
<path d="M0 0 C9.63472555 7.2040805 14.12775997 14.25715174 16 26 C16.29384822 29.94171457 16.33431618 33.86096573 16.3125 37.8125 C16.30404053 39.40372681 16.30404053 39.40372681 16.29541016 41.02709961 C16.14748986 50.55331328 15.98076158 60.464625 8.8515625 67.6640625 C2.33658398 72.3647432 -6.24586353 72.93219127 -14 72 C-25.09001657 69.61138105 -34.72358203 63.60598116 -41 54 C-47.36958903 40.81168426 -46.98679382 29.64568884 -42.4921875 15.9140625 C-40.80792405 11.21725914 -38.55527217 7.51704344 -35 4 C-34.2575 3.236875 -33.515 2.47375 -32.75 1.6875 C-23.46390066 -4.01078823 -9.6195697 -5.9139767 0 0 Z " fill="#357094" transform="translate(112,80)"/>
<path d="M0 0 C1.43641846 0.26792358 1.43641846 0.26792358 2.90185547 0.54125977 C22.71900408 4.43540812 22.71900408 4.43540812 28.1875 12.3125 C30.63281025 17.71792266 30.79222829 23.46663942 31.1875 29.3125 C32.26644531 29.54324219 33.34539062 29.77398437 34.45703125 30.01171875 C39.37573518 31.07502762 44.28292737 32.18596965 49.1875 33.3125 C50.05761719 33.51037109 50.92773438 33.70824219 51.82421875 33.91210938 C54.3882123 34.50424241 56.94429949 35.1231395 59.5 35.75 C60.29317627 35.93071045 61.08635254 36.1114209 61.90356445 36.29760742 C66.94369528 37.56968944 69.98991969 38.98499149 73.1875 43.3125 C76.20379512 49.89790011 76.59580857 56.10475055 76.48046875 63.25390625 C76.47622391 64.26218979 76.47197906 65.27047333 76.46760559 66.30931091 C76.45094683 69.49815716 76.41331877 72.686348 76.375 75.875 C76.35993661 78.05012102 76.34625112 80.22525204 76.33398438 82.40039062 C76.30108548 87.70464693 76.25101575 93.00852662 76.1875 98.3125 C74.37574266 94.82521962 73.26668401 91.4232776 72.19921875 87.6328125 C71.8183724 86.29687129 71.43751256 84.96093392 71.05664062 83.625 C70.46975886 81.54822947 69.88443173 79.47102969 69.30004883 77.39355469 C68.34711582 74.01493701 67.37086437 70.64774973 66.3425293 67.29125977 C65.54217086 64.65585054 64.91973834 62.05167704 64.40161133 59.34741211 C63.4477724 55.38044432 62.5735898 52.63202972 60.1875 49.3125 C54.50376966 46.45878968 48.74097333 45.57249267 42.5 44.625 C40.8915316 44.33451226 39.28408172 44.03832469 37.67773438 43.73632812 C33.655556 42.99556641 29.62512028 42.33243911 25.58535767 41.69537354 C23.216311 41.31710034 20.85153842 40.91896755 18.48706055 40.51318359 C9.13932262 38.91145855 -0.2170495 37.52062825 -9.625 36.3125 C-24.38988496 34.38995989 -24.38988496 34.38995989 -31.12890625 33.390625 C-32.07725342 33.25011719 -33.02560059 33.10960937 -34.00268555 32.96484375 C-35.72494762 32.70674719 -37.44654129 32.44412633 -39.16723633 32.17578125 C-48.32731623 30.51611724 -48.32731623 30.51611724 -56.6875 33.3125 C-57.38875 33.9725 -58.09 34.6325 -58.8125 35.3125 C-59.4725 35.3125 -60.1325 35.3125 -60.8125 35.3125 C-59.4965331 26.23925452 -59.4965331 26.23925452 -56.875 22.6875 C-54.8125 21.3125 -54.8125 21.3125 -51.8125 21.3125 C-51.4825 20.3225 -51.1525 19.3325 -50.8125 18.3125 C-47.70033541 16.75641771 -44.4117342 17.16927168 -41 17.1875 C-40.28779297 17.18363281 -39.57558594 17.17976563 -38.84179688 17.17578125 C-34.95049446 17.1829807 -31.66518636 17.54196273 -27.8125 18.3125 C-27.8125 13.0325 -27.8125 7.7525 -27.8125 2.3125 C-19.04185422 -3.7888188 -10.05356443 -1.88714853 0 0 Z M-21.8125 9.3125 C-21.8125 12.6125 -21.8125 15.9125 -21.8125 19.3125 C-20.54019531 19.55484375 -19.26789063 19.7971875 -17.95703125 20.046875 C-17.11640137 20.20704102 -16.27577148 20.36720703 -15.40966797 20.53222656 C-13.53766584 20.88870461 -11.66559434 21.24481851 -9.79345703 21.60058594 C-4.80984942 22.54817916 0.17243856 23.50187391 5.15234375 24.46875 C6.10149658 24.65211914 7.05064941 24.83548828 8.02856445 25.02441406 C9.85956138 25.37831367 11.69014249 25.73437264 13.52026367 26.09277344 C14.35146729 26.25293945 15.1826709 26.41310547 16.0390625 26.578125 C16.76947754 26.72024414 17.49989258 26.86236328 18.25244141 27.00878906 C20.3549951 27.39002682 20.3549951 27.39002682 23.1875 27.3125 C23.0328125 25.4871875 23.0328125 25.4871875 22.875 23.625 C22.81699219 22.94050781 22.75898438 22.25601563 22.69921875 21.55078125 C22.02768652 18.61346854 21.01839307 16.70952447 19.1875 14.3125 C16.8112104 13.16583383 16.8112104 13.16583383 14 12.6875 C12.93523437 12.46191406 11.87046875 12.23632812 10.7734375 12.00390625 C9.59007813 11.77574219 8.40671875 11.54757813 7.1875 11.3125 C5.86685816 11.03149125 4.54655465 10.74888864 3.2265625 10.46484375 C-9.45960403 7.30926244 -9.45960403 7.30926244 -21.8125 9.3125 Z " fill="#7B5A5A" transform="translate(114.8125,18.6875)"/>
<path d="M0 0 C1.43641846 0.26792358 1.43641846 0.26792358 2.90185547 0.54125977 C22.71900408 4.43540812 22.71900408 4.43540812 28.1875 12.3125 C30.63281025 17.71792266 30.79222829 23.46663942 31.1875 29.3125 C32.26644531 29.54324219 33.34539062 29.77398437 34.45703125 30.01171875 C39.37573518 31.07502762 44.28292737 32.18596965 49.1875 33.3125 C50.05761719 33.51037109 50.92773438 33.70824219 51.82421875 33.91210938 C54.3882123 34.50424241 56.94429949 35.1231395 59.5 35.75 C60.29317627 35.93071045 61.08635254 36.1114209 61.90356445 36.29760742 C66.94369528 37.56968944 69.98991969 38.98499149 73.1875 43.3125 C76.20379512 49.89790011 76.59580857 56.10475055 76.48046875 63.25390625 C76.47622391 64.26218979 76.47197906 65.27047333 76.46760559 66.30931091 C76.45094683 69.49815716 76.41331877 72.686348 76.375 75.875 C76.35993661 78.05012102 76.34625112 80.22525204 76.33398438 82.40039062 C76.30108548 87.70464693 76.25101575 93.00852662 76.1875 98.3125 C74.41414722 94.95806952 73.73767602 92.21162289 73.2578125 88.4296875 C73.10449463 87.27025635 72.95117676 86.1108252 72.79321289 84.91625977 C72.63457764 83.68576904 72.47594238 82.45527832 72.3125 81.1875 C70.56936185 68.48319035 70.56936185 68.48319035 68.25 55.875 C68.11674316 55.16778809 67.98348633 54.46057617 67.84619141 53.73193359 C66.78457522 48.91602409 65.05227079 46.34401525 61.1875 43.3125 C52.80890048 39.65679669 43.3149715 38.5376064 34.32177734 37.26318359 C28.27881141 36.40381141 28.27881141 36.40381141 27.1875 35.3125 C26.790007 32.96526034 26.44381277 30.60921452 26.125 28.25 C25.94839844 26.95964844 25.77179688 25.66929688 25.58984375 24.33984375 C25.45707031 23.34082031 25.32429688 22.34179688 25.1875 21.3125 C23.83131501 22.43784105 23.83131501 22.43784105 24.125 25.375 C24.145625 26.344375 24.16625 27.31375 24.1875 28.3125 C22.8675 27.9825 21.5475 27.6525 20.1875 27.3125 C21.1775 27.3125 22.1675 27.3125 23.1875 27.3125 C22.76226184 25.70503944 22.32179874 24.10160164 21.875 22.5 C21.63136719 21.60667969 21.38773438 20.71335937 21.13671875 19.79296875 C20.1079209 17.10454638 19.41164759 16.09546671 17.1875 14.3125 C13.15464351 13.03343696 8.97008094 12.39208991 4.8125 11.625 C3.13607422 11.28758789 3.13607422 11.28758789 1.42578125 10.94335938 C-6.39522284 9.45944337 -13.86134975 9.0391433 -21.8125 9.3125 C-21.8125 12.6125 -21.8125 15.9125 -21.8125 19.3125 C-22.1425 19.3125 -22.4725 19.3125 -22.8125 19.3125 C-23.1425 15.6825 -23.4725 12.0525 -23.8125 8.3125 C-22.8225 8.3125 -21.8325 8.3125 -20.8125 8.3125 C-20.8125 7.6525 -20.8125 6.9925 -20.8125 6.3125 C-19.3125 4.6875 -19.3125 4.6875 -17.8125 3.3125 C-19.7925 2.6525 -21.7725 1.9925 -23.8125 1.3125 C-24.1425 3.6225 -24.4725 5.9325 -24.8125 8.3125 C-25.1425 8.3125 -25.4725 8.3125 -25.8125 8.3125 C-26.1425 9.9625 -26.4725 11.6125 -26.8125 13.3125 C-27.1425 13.3125 -27.4725 13.3125 -27.8125 13.3125 C-27.8125 9.6825 -27.8125 6.0525 -27.8125 2.3125 C-19.04185422 -3.7888188 -10.05356443 -1.88714853 0 0 Z " fill="#715253" transform="translate(114.8125,18.6875)"/>
<path d="M0 0 C1.258125 -0.020625 2.51625 -0.04125 3.8125 -0.0625 C4.52019531 -0.07410156 5.22789063 -0.08570312 5.95703125 -0.09765625 C8 0 8 0 11 1 C11.20177072 8.35342179 11.21211746 14.94887561 9 22 C12.96 22.33 16.92 22.66 21 23 C21 27.62 21 32.24 21 37 C15.97812188 37.0749534 11.96384404 36.99276881 7 36 C7 41.61 7 47.22 7 53 C1.6253203 52.5186854 -1.9085686 52.03657256 -7 50 C-7 44.06 -7 38.12 -7 32 C-8.423125 31.71125 -9.84625 31.4225 -11.3125 31.125 C-14.58058692 30.4619099 -16.14521674 29.90318884 -19 28 C-19.2982655 23.45145106 -19.10962199 19.43848796 -18 15 C-13.13103697 15.59619955 -8.67209049 16.56976822 -4 18 C-3.96261719 17.3709375 -3.92523438 16.741875 -3.88671875 16.09375 C-3.43322879 10.18948851 -2.32023086 5.44749854 0 0 Z " fill="#E6E6E2" transform="translate(96,88)"/>
<path d="M0 0 C5.445 1.485 5.445 1.485 11 3 C11 8.94 11 14.88 11 21 C15.29 21.99 19.58 22.98 24 24 C24 25.65 24 27.3 24 29 C24.66 29.99 25.32 30.98 26 32 C28.89608399 32.36498034 28.89608399 32.36498034 32.125 32.1875 C33.22070312 32.16042969 34.31640625 32.13335937 35.4453125 32.10546875 C36.28835937 32.07066406 37.13140625 32.03585938 38 32 C34.69633838 35.30366162 30.45274188 35.18310393 25.9375 35.3125 C15.31358413 35.16951325 6.65110993 31.26074718 -1 24 C-2.80592444 22.06265853 -4.39977546 20.116426 -6 18 C-5.34 17.67 -4.68 17.34 -4 17 C-3.67 17.66 -3.34 18.32 -3 19 C-2.34 19.33 -1.68 19.66 -1 20 C1 21 1 21 2 23 C3.32 23 4.64 23 6 23 C6.33 24.65 6.66 26.3 7 28 C9.64 28.33 12.28 28.66 15 29 C15.33 27.68 15.66 26.36 16 25 C14.824375 25.0928125 14.824375 25.0928125 13.625 25.1875 C12.75875 25.125625 11.8925 25.06375 11 25 C8.93276286 21.89914429 8.75502577 21.27068319 8.8046875 17.76953125 C8.81113281 16.96708984 8.81757812 16.16464844 8.82421875 15.33789062 C8.84097656 14.50451172 8.85773438 13.67113281 8.875 12.8125 C8.88402344 11.96751953 8.89304687 11.12253906 8.90234375 10.25195312 C8.92589297 8.16784757 8.96176353 6.08388783 9 4 C4.545 3.01 4.545 3.01 0 2 C0 1.34 0 0.68 0 0 Z " fill="#467794" transform="translate(78,117)"/>
<path d="M0 0 C7.67102183 0.56220997 15.13469742 1.62314436 22.6875 3.0625 C23.68716797 3.24876953 24.68683594 3.43503906 25.71679688 3.62695312 C28.14541301 4.08013987 30.57307351 4.53786592 33 5 C33 5.33 33 5.66 33 6 C29.56484998 6.62457273 26.50935186 7 23 7 C27.4482941 8.62875999 31.68266178 9.50525722 36.375 10.125 C37.62023437 10.29257812 38.86546875 10.46015625 40.1484375 10.6328125 C41.08945313 10.75398438 42.03046875 10.87515625 43 11 C43 11.66 43 12.32 43 13 C36.03725672 12.43092514 29.27807999 11.40580795 22.4375 10 C21.08688477 9.73316406 21.08688477 9.73316406 19.70898438 9.4609375 C13.13030688 8.13030688 13.13030688 8.13030688 12 7 C8.70315145 6.71390984 5.40618875 6.55109853 2.1015625 6.37890625 C-1 6 -1 6 -4 4 C-2.68 3.67 -1.36 3.34 0 3 C0 2.01 0 1.02 0 0 Z " fill="#715151" transform="translate(97,39)"/>
<path d="M0 0 C1.74890971 3.02960993 2.24619963 5.19166675 2.22705078 8.67675781 C2.22689972 9.59741028 2.22674866 10.51806274 2.22659302 11.46661377 C2.21627045 12.45216248 2.20594788 13.43771118 2.1953125 14.453125 C2.1924826 15.46848328 2.18965271 16.48384155 2.18673706 17.52996826 C2.17555001 20.77009916 2.15044791 24.00995276 2.125 27.25 C2.1149683 29.44791267 2.10584278 31.64582968 2.09765625 33.84375 C2.07561551 39.22926114 2.04215251 44.61461076 2 50 C0.25801222 46.74435012 -0.17763418 44.79300009 0.00390625 41.0859375 C0.1286568 34.44214273 -0.9293249 28.15478128 -2.0625 21.625 C-2.45737606 19.34775361 -2.84441442 17.06913078 -3.22265625 14.7890625 C-3.39547119 13.79600098 -3.56828613 12.80293945 -3.74633789 11.77978516 C-4.00903334 8.90100711 -3.8448499 6.76023088 -3 4 C-2.34 3.67 -1.68 3.34 -1 3 C-0.67 2.01 -0.34 1.02 0 0 Z " fill="#775858" transform="translate(189,67)"/>
<path d="M0 0 C2.41310211 3.61965316 2.7897988 5.6558418 3 10 C2.231467 13.09876447 1.18839379 16.03908667 0 19 C0.61488281 18.95359375 1.22976562 18.9071875 1.86328125 18.859375 C3.07564453 18.80523437 3.07564453 18.80523437 4.3125 18.75 C5.51326172 18.68039063 5.51326172 18.68039063 6.73828125 18.609375 C9 19 9 19 10.77734375 20.6328125 C12.32830197 23.63562618 12.33268694 25.75964158 12.25 29.125 C12.22679687 30.70667969 12.22679687 30.70667969 12.203125 32.3203125 C12 35 12 35 11 37 C6.71 37 2.42 37 -2 37 C-2.33 38.32 -2.66 39.64 -3 41 C-3.33 41 -3.66 41 -4 41 C-4 39.02 -4 37.04 -4 35 C2.93 35.495 2.93 35.495 10 36 C10 31.38 10 26.76 10 22 C6.04 21.67 2.08 21.34 -2 21 C-1.01 10.605 -1.01 10.605 0 0 Z " fill="#527B93" transform="translate(107,89)"/>
<path d="M0 0 C11.84470327 -0.37936772 11.84470327 -0.37936772 17 2 C19 4 19 4 19 8 C12.06697907 8.22731216 5.7831364 7.42002108 -1 6 C-0.67 5.34 -0.34 4.68 0 4 C2.3140622 3.26924352 4.64828869 2.59861742 7 2 C4.69 1.67 2.38 1.34 0 1 C0 0.67 0 0.34 0 0 Z " fill="#725353" transform="translate(71,36)"/>
<path d="M0 0 C0.66 0.33 1.32 0.66 2 1 C-2.56787836 5.36927495 -6.49895822 7.90343984 -12.43359375 10.05078125 C-15.75665388 11.27985828 -18.90793528 12.80986314 -22.08984375 14.36328125 C-24 15 -24 15 -27 14 C-22.74365499 10.94951077 -18.8035334 8.9832206 -13.8125 7.25 C-12.60207031 6.82203125 -11.39164063 6.3940625 -10.14453125 5.953125 C-7 5 -7 5 -4 5 C-4 4.34 -4 3.68 -4 3 C-2 1.375 -2 1.375 0 0 Z " fill="#E2DAD2" transform="translate(205,137)"/>
<path d="M0 0 C4.00721904 0.62779765 8.00507836 1.29818944 12 2 C12.78117188 2.13277344 13.56234375 2.26554687 14.3671875 2.40234375 C20.26310109 3.6067619 23.98694867 6.11170896 27.4375 11.0625 C28.11891224 13.40958661 27.65885427 14.68679631 27 17 C26.78085938 16.45730469 26.56171875 15.91460937 26.3359375 15.35546875 C26.01882812 14.64003906 25.70171875 13.92460938 25.375 13.1875 C25.07335937 12.47980469 24.77171875 11.77210937 24.4609375 11.04296875 C20.52894321 5.54448476 12.69287878 4.82088292 6.48242188 3.45117188 C4.64094505 3.02383941 2.8180696 2.51795063 1 2 C0.67 1.34 0.34 0.68 0 0 Z " fill="#684947" transform="translate(156,55)"/>
<path d="M0 0 C0.66 0 1.32 0 2 0 C2.31806054 7.7276932 2.32270836 13.93924474 -1 21 C-1.66 21 -2.32 21 -3 21 C-2.125 16.125 -2.125 16.125 -1 15 C-0.95300911 13.60495787 -0.96260416 12.20783231 -1 10.8125 C-1.04755492 7.09132772 -0.75055547 3.65895789 0 0 Z " fill="#D5E2EA" transform="translate(105,89)"/>
<path d="M0 0 C0.33 0 0.66 0 1 0 C1.57446809 21.53191489 1.57446809 21.53191489 -2 32 C-2.8723412 29.00519083 -3.10829766 26.36424089 -3.0625 23.25 C-3.05347656 22.45078125 -3.04445313 21.6515625 -3.03515625 20.828125 C-3.02355469 20.22484375 -3.01195313 19.6215625 -3 19 C-2.34 18.67 -1.68 18.34 -1 18 C-0.505 9.09 -0.505 9.09 0 0 Z " fill="#41708B" transform="translate(127,110)"/>
<path d="M0 0 C2.18742014 3.2811302 2.54442806 5.33084356 3.125 9.1875 C3.37636719 10.81751953 3.37636719 10.81751953 3.6328125 12.48046875 C3.75398437 13.31191406 3.87515625 14.14335938 4 15 C4.62648437 15.04898438 5.25296875 15.09796875 5.8984375 15.1484375 C6.71570313 15.22320312 7.53296875 15.29796875 8.375 15.375 C9.18710938 15.44460937 9.99921875 15.51421875 10.8359375 15.5859375 C13 16 13 16 15 18 C13.02043559 17.85966889 11.04134859 17.7125877 9.0625 17.5625 C7.96035156 17.48128906 6.85820312 17.40007813 5.72265625 17.31640625 C3 17 3 17 2 16 C1.60001092 14.25990151 1.25462198 12.50709069 0.9375 10.75 C0.76089844 9.79609375 0.58429688 8.8421875 0.40234375 7.859375 C0.02694617 5.1915009 -0.07360439 2.68901371 0 0 Z " fill="#694848" transform="translate(140,38)"/>
<path d="M0 0 C0.66 0 1.32 0 2 0 C2 4.29 2 8.58 2 13 C-0.3431213 12.74438677 -2.67843403 12.40729228 -5 12 C-5.33 11.34 -5.66 10.68 -6 10 C-4.02 10 -2.04 10 0 10 C0 6.7 0 3.4 0 0 Z " fill="#BED2DD" transform="translate(101,128)"/>
<path d="M0 0 C1.44715727 3.87186448 0.5441918 6.8232328 -0.4375 10.75 C-0.72496094 11.92046875 -1.01242188 13.0909375 -1.30859375 14.296875 C-1.53675781 15.18890625 -1.76492187 16.0809375 -2 17 C-8.75 16.25 -8.75 16.25 -11 14 C-8.36 14.33 -5.72 14.66 -3 15 C-3.03480469 14.41992188 -3.06960937 13.83984375 -3.10546875 13.2421875 C-3.28744524 7.990866 -2.83377711 4.60488781 0 0 Z " fill="#4C758C" transform="translate(94,89)"/>
<path d="M0 0 C1.65 0 3.3 0 5 0 C5 0.66 5 1.32 5 2 C4.01 2.33 3.02 2.66 2 3 C1.67 6.3 1.34 9.6 1 13 C2.32 13.33 3.64 13.66 5 14 C4.01 14.33 3.02 14.66 2 15 C1.01 14.34 0.02 13.68 -1 13 C-1.2982655 8.45145106 -1.10962199 4.43848796 0 0 Z " fill="#C9DAE3" transform="translate(78,103)"/>
<path d="M0 0 C4.13689421 0.18804065 5.73554469 0.76428983 8.875 3.5625 C9.926875 4.7690625 9.926875 4.7690625 11 6 C9.96875 5.835 8.9375 5.67 7.875 5.5 C4.51755674 5.06678152 1.37663843 4.91764297 -2 5 C-1.125 1.125 -1.125 1.125 0 0 Z " fill="#7C5A5B" transform="translate(123,25)"/>
<path d="M0 0 C0.33 0 0.66 0 1 0 C1 4.62 1 9.24 1 14 C2.32 14.66 3.64 15.32 5 16 C5.33 16.99 5.66 17.98 6 19 C3.69 18.34 1.38 17.68 -1 17 C-1.02691685 14.54159395 -1.04679802 12.08348118 -1.0625 9.625 C-1.07087891 8.92632812 -1.07925781 8.22765625 -1.08789062 7.5078125 C-1.11328125 2.2265625 -1.11328125 2.2265625 0 0 Z " fill="#D5E5EC" transform="translate(90,121)"/>
<path d="M0 0 C1.17673198 2.35346396 1.16623866 3.8806033 1.1875 6.5 C1.20167969 7.2940625 1.21585937 8.088125 1.23046875 8.90625 C1 11 1 11 -1 13 C-1.39764263 14.98821313 -1.73775349 16.98944339 -2 19 C-2.33 19 -2.66 19 -3 19 C-3.35368021 11.87399867 -2.95671348 6.52940894 0 0 Z " fill="#58839B" transform="translate(69,101)"/>
<path d="M0 0 C0.33 0 0.66 0 1 0 C1 3.96 1 7.92 1 12 C2.65 12.33 4.3 12.66 6 13 C6 13.99 6 14.98 6 16 C4.68 16 3.36 16 2 16 C-0.42130331 12.36804504 -0.21022785 10.61650652 -0.125 6.3125 C-0.09792969 4.54326172 -0.09792969 4.54326172 -0.0703125 2.73828125 C-0.04710938 1.83464844 -0.02390625 0.93101563 0 0 Z " fill="#3E6E87" transform="translate(87,126)"/>
<path d="M0 0 C7.50769231 0.61538462 7.50769231 0.61538462 10 2.5625 C10.33 3.036875 10.66 3.51125 11 4 C8 5 8 5 5.95703125 4.22265625 C5.24933594 3.83980469 4.54164062 3.45695313 3.8125 3.0625 C3.09707031 2.68222656 2.38164063 2.30195313 1.64453125 1.91015625 C1.10183594 1.60980469 0.55914062 1.30945313 0 1 C0 0.67 0 0.34 0 0 Z " fill="#527B94" transform="translate(83,145)"/>
<path d="M0 0 C0.66 0.66 1.32 1.32 2 2 C-2.48074195 5.36055646 -5.60550707 5.27429625 -11 5 C-11 4.67 -11 4.34 -11 4 C-10.28972656 3.79503906 -9.57945313 3.59007812 -8.84765625 3.37890625 C-7.92855469 3.10949219 -7.00945312 2.84007812 -6.0625 2.5625 C-4.68771484 2.16224609 -4.68771484 2.16224609 -3.28515625 1.75390625 C-1.0597507 1.20973949 -1.0597507 1.20973949 0 0 Z " fill="#C8DBE3" transform="translate(120,147)"/>
<path d="M0 0 C5.57142857 5.14285714 5.57142857 5.14285714 6 9 C5.01 8.67 4.02 8.34 3 8 C1.76132839 5.38502661 0.91496017 2.74488051 0 0 Z " fill="#48748E" transform="translate(118,86)"/>
<path d="M0 0 C0.66 1.32 1.32 2.64 2 4 C1.34 4 0.68 4 0 4 C-0.66 5.65 -1.32 7.3 -2 9 C-2.33 9 -2.66 9 -3 9 C-2.25 2.25 -2.25 2.25 0 0 Z " fill="#6A4F50" transform="translate(58,42)"/>
<path d="M0 0 C0.33 0 0.66 0 1 0 C1.125 5.75 1.125 5.75 0 8 C-1.32 7.67 -2.64 7.34 -4 7 C-3.525625 6.401875 -3.05125 5.80375 -2.5625 5.1875 C-0.83534256 2.99617076 -0.83534256 2.99617076 0 0 Z " fill="#D5E1EA" transform="translate(125,139)"/>
</svg>
